<svg xmlns="http://www.w3.org/2000/svg" viewBox="0 0 36 36" fill="none" aria-hidden="true">
  <path
    fill="#0F766E"
    d="M4 6h10c5.52 0 10 4.48 10 10s-4.48 10-10 10h-4v10H4V6zm4 4v12h6c3.31 0 6-2.69 6-6s-2.69-6-6-6H8z"
  />
  <path
    fill="#14B8A6"
    d="M6 8h10c5.52 0 10 4.48 10 10s-4.48 10-10 10h-4v10H6V8zm4 4v12h6c3.31 0 6-2.69 6-6s-2.69-6-6-6h-6z"
  />
  <path
    fill="#2DD4BF"
    d="M8 10h10c5.52 0 10 4.48 10 10s-4.48 10-10 10h-4v10H8V10zm4 4v12h6c3.31 0 6-2.69 6-6s-2.69-6-6-6h-6z"
  />
</svg>
